<svg id="Logo" xmlns="http://www.w3.org/2000/svg" width="170.457" height="64.267" viewBox="0 0 170.457 64.267">
  <path id="Caminho_13145" data-name="Caminho 13145" d="M7.511-10.1c.065.189.127.358.192.526L.495-6.02a1.265,1.265,0,0,1-.382.1c-.232,0-.105-.252.382-.5C.516-6.441,3.251-7.853,7.511-10.1m1.209.042L7.7-9.578c-.065-.168-.127-.337-.192-.526.32-.149.658-.317,1-.506.063.189.128.357.212.547M19.576-38.2a1.077,1.077,0,0,1,.169.674.97.97,0,0,1-.169.652,1,1,0,0,1-.656.148l-.128.02h-.552v.781h-.466v-2.445H18.9a1.036,1.036,0,0,1,.679.17m-.3.694a.732.732,0,0,0-.085-.4.627.627,0,0,0-.361-.064h-.594v.865h.531a.742.742,0,0,0,.4-.064.418.418,0,0,0,.107-.337m2.078.421v.106h-.383v-.085c0-.19-.084-.275-.212-.275-.211,0-.317.127-.317.4v1.012h-.4v-1.705h.4l-.02.23a.533.533,0,0,1,.466-.252c.317,0,.467.19.467.569m1.633-.4a.933.933,0,0,1,.17.652,1.244,1.244,0,0,1-.17.758.817.817,0,0,1-.616.169,1.068,1.068,0,0,1-.7-.148,1.2,1.2,0,0,1-.149-.737,1.055,1.055,0,0,1,.149-.7c.105-.126.317-.169.658-.169s.571.043.658.169m-.255.672c0-.231-.022-.357-.085-.419-.02-.064-.147-.107-.317-.107s-.277.043-.319.107a.64.64,0,0,0-.085.419c0,.254.02.423.085.486.043.063.149.1.319.1a.422.422,0,0,0,.338-.1,1.12,1.12,0,0,0,.065-.486m3.349-.251v1.138h-.4v-1.033c0-.252-.107-.38-.3-.38-.253,0-.382.149-.382.423v.99h-.423v-1.053c0-.148,0-.232-.043-.275a.36.36,0,0,0-.254-.085c-.255,0-.382.149-.382.423v.99h-.4v-1.705h.4v.252a.558.558,0,0,1,.529-.275c.32,0,.487.1.531.315a.506.506,0,0,1,.531-.315.525.525,0,0,1,.593.59m1.993.231a1.509,1.509,0,0,1-.127.758,1.013,1.013,0,0,1-.658.169,1,1,0,0,1-.678-.148,1.159,1.159,0,0,1-.17-.737,1.024,1.024,0,0,1,.17-.7c.085-.126.317-.169.656-.169s.552.043.658.169a.944.944,0,0,1,.149.652m-.4.02c0-.231-.022-.357-.085-.419-.043-.064-.149-.107-.319-.107a.458.458,0,0,0-.339.107.9.9,0,0,0-.062.419,1.133,1.133,0,0,0,.062.486.464.464,0,0,0,.339.1c.17,0,.275-.042.319-.1a.809.809,0,0,0,.085-.486m.871,34.463V-2c-.829.064-.934.189-.956,1.308V1.185a3.644,3.644,0,0,1-.319,1.876A2.413,2.413,0,0,1,25,4.091,2.33,2.33,0,0,1,22.629,2.87a3.514,3.514,0,0,1-.15-1.413V-1.109l.023-.4c0-.358,0-.38-.043-.443l-.15-.061c-.253-.024-.508-.044-.74-.044v-.358l2.8.021v.357h-.234a1.215,1.215,0,0,0-.656.107l-.065.148v.675l-.02,2.59c0,.907.085,1.244.382,1.58a1.81,1.81,0,0,0,1.4.547,1.813,1.813,0,0,0,1.655-.738,2.912,2.912,0,0,0,.316-1.685l.02-1.9c0-1.073-.126-1.221-1.038-1.3v-.359Zm.7-33.387.149.189-.359.254-.127-.127Zm.7-.843v.063l-.02.272c-.063.233-.3.338-.741.338-.34,0-.554-.043-.659-.169a1.13,1.13,0,0,1-.147-.7,1.05,1.05,0,0,1,.147-.694.812.812,0,0,1,.636-.19.993.993,0,0,1,.6.127.625.625,0,0,1,.169.5h-.4c0-.211-.128-.317-.362-.317-.169,0-.275.043-.317.107a1.119,1.119,0,0,0-.042.462.9.9,0,0,0,.063.443c.043.083.147.1.339.1a.438.438,0,0,0,.277-.063c.042-.042.042-.146.042-.294ZM31.4-38.247l.212.125c-.107.189-.213.275-.361.275a.567.567,0,0,1-.275-.086.641.641,0,0,0-.213-.1c-.062,0-.126.063-.168.148l-.213-.125c.128-.17.235-.274.381-.274a.738.738,0,0,1,.256.1,1.021,1.021,0,0,0,.232.085c.062,0,.105-.042.149-.146m.359,1.2v1.118h-.423l.02-.232a.562.562,0,0,1-.551.252c-.424,0-.636-.169-.636-.526s.211-.527.636-.527c.3,0,.467.064.531.189v-.274a.439.439,0,0,0-.063-.272.471.471,0,0,0-.3-.063c-.213,0-.3.083-.3.252H30.24a.53.53,0,0,1,.146-.423,1.221,1.221,0,0,1,.574-.1,1.094,1.094,0,0,1,.636.127.6.6,0,0,1,.169.483m-.783.864c.254,0,.381-.085.381-.252s-.149-.254-.4-.254-.359.085-.359.232a.308.308,0,0,0,.062.231.923.923,0,0,0,.319.043m2.608-1.306a.951.951,0,0,1,.149.652,1.274,1.274,0,0,1-.149.758.908.908,0,0,1-.636.169,1.064,1.064,0,0,1-.7-.148,1.348,1.348,0,0,1-.15-.737,1.186,1.186,0,0,1,.15-.7c.105-.126.338-.169.677-.169s.551.043.658.169m-.275.672a.838.838,0,0,0-.063-.419c-.043-.064-.149-.107-.319-.107a.456.456,0,0,0-.339.107.9.9,0,0,0-.063.419,1.126,1.126,0,0,0,.063.486c.043.063.149.1.339.1.17,0,.275-.042.319-.1a1.127,1.127,0,0,0,.063-.486m3.795-1.558v2.445h-.466v-1.053H35.5v1.053h-.467v-2.445H35.5v.991h1.145v-.991Zm1.95.739v1.705h-.4l.022-.3a.546.546,0,0,1-.573.317.5.5,0,0,1-.573-.569v-1.157h.4v1.052a.461.461,0,0,0,.065.294.367.367,0,0,0,.253.063c.277,0,.4-.168.4-.484v-.925Zm.7,27.74v5.646H35.73V-6.84H34.712V1h1.252v3.1h-6.34V1h1.25V-6.84H29.857v2.591H25.809V-9.895ZM38.592-5.156v-4h-11.6v4h1.761V-7.768h3.03V1.88H30.662V3.207H34.9V1.88H33.779V-7.768h3.053v2.612Zm3.477-31.911v1.138h-.4v-1.033c0-.252-.107-.38-.3-.38-.255,0-.382.149-.382.423v.99h-.4v-1.053a.4.4,0,0,0-.062-.275.366.366,0,0,0-.255-.085c-.254,0-.359.149-.359.423v.99h-.424v-1.705h.424l-.022.252h.022a.5.5,0,0,1,.508-.275c.319,0,.487.1.529.315a.507.507,0,0,1,.531-.315.526.526,0,0,1,.594.59M40.86-2.269c1.1,0,2.988.168,2.968,1.748a1.605,1.605,0,0,1-.87,1.411,3.726,3.726,0,0,1-2.077.358h-.933V3.334c0,.358.042.4.658.4h.339v.357L38.189,4.07V3.713H38.4a1.287,1.287,0,0,0,.614-.085l.065-.168V2.784l.02-3.77.022-.672a.869.869,0,0,1-.042-.169c-.107-.1-.427-.1-.849-.1V-2.29ZM42.853-.541c0-.971-.487-1.371-1.7-1.371h-.743c-.361-.02-.424.064-.444.463l-.022,2.3h.763c1.674.024,2.12-.274,2.142-1.388M44.02-37.047v1.118h-.4v-.232c-.084.168-.255.252-.552.252-.423,0-.636-.169-.636-.526s.213-.527.659-.527c.274,0,.446.064.508.189h.022v-.274a.417.417,0,0,0-.084-.272.44.44,0,0,0-.277-.063c-.212,0-.317.083-.317.252h-.424a.528.528,0,0,1,.127-.423,1.243,1.243,0,0,1,.593-.1,1.056,1.056,0,0,1,.614.127c.128.083.17.252.171.483m-.786.864c.254,0,.381-.085.381-.252s-.127-.254-.4-.254c-.234,0-.361.085-.361.232,0,.126.02.189.085.231a.774.774,0,0,0,.3.043m1.589-1.179a.594.594,0,0,1,.552-.3c.4,0,.614.19.614.569v1.159h-.424v-1.2c-.022-.127-.127-.212-.317-.212a.358.358,0,0,0-.4.4v1.012h-.425v-1.705h.425Zm3.1.315v1.118H47.5l.02-.232q-.126.252-.571.252c-.4,0-.616-.169-.616-.526s.212-.527.637-.527c.275,0,.466.064.529.189v-.274a.439.439,0,0,0-.063-.272.51.51,0,0,0-.3-.063c-.212,0-.319.083-.319.252h-.423a.53.53,0,0,1,.147-.423,1.208,1.208,0,0,1,.573-.1,1.094,1.094,0,0,1,.636.127.6.6,0,0,1,.17.483m-.806.864c.255,0,.382-.085.382-.252s-.127-.254-.4-.254c-.234,0-.339.085-.339.232a.3.3,0,0,0,.062.231.787.787,0,0,0,.3.043m11.215-.441.487,1.073v.884l-2.332,1.138c.32,2.233.425,7.771-6.127,8.131l.065,13.777a9.236,9.236,0,0,0-6.7-3.5l-7.4.021a3.15,3.15,0,0,0-2.776,2.023H31.956a3.142,3.142,0,0,0-2.8-1.982l-7.314.02a9.123,9.123,0,0,0-6.761,3.542V-13.2L8.72-10.063c-.084-.19-.149-.358-.212-.547,1.951-1.012,4.177-2.191,6.574-3.435L15.015-28.58c-.02-.211-.273-4,4.836-4.023l9.688-.042h.19a4.229,4.229,0,0,1,2.947,1.116A4.146,4.146,0,0,1,35.6-32.665a.581.581,0,0,1,.17.021l9.689-.042a5.4,5.4,0,0,1,3.456.969c5.618-2.929,9.222-4.8,9.412-4.908m-7.78,9.73c5.15-.526,5.6-4.464,5.491-6.424L50-30.348a3.3,3.3,0,0,1,.339,1.664l.022,1.814a1.163,1.163,0,0,1,.192-.024M49.087-14.928,49.045-25.4a10.6,10.6,0,0,1-5.47-1.79L33.5-22.239l.022,6.362a2.175,2.175,0,0,1,1.546-.675l8.968-.02a1.33,1.33,0,0,1,.212-.02,7.735,7.735,0,0,1,4.836,1.664m-.065-12.008v-.484a3.588,3.588,0,0,0-.614-2.148l-2.694,1.327a7.679,7.679,0,0,0,3.308,1.306M47.03-30.728a2.876,2.876,0,0,0-1.464-.337c-.466,0-9.455.021-10.028.021a2.022,2.022,0,0,0-2.078,1.895l.043,5.477c3.03-1.579,6-3.138,8.777-4.57a7.2,7.2,0,0,1-.806-.97c-.487-.737.487-1.452.529-1.473a1.339,1.339,0,0,1,.679-.19,1.148,1.148,0,0,1,.932.486,7.79,7.79,0,0,0,.829,1.01c.89-.464,1.758-.927,2.586-1.348m-15.1,14.872-.02-5.623L21.843-16.507l8.544-.024a2.043,2.043,0,0,1,1.548.675m-.02-6.972-.042-6.321a2,2,0,0,0-2.079-1.874c-.551,0-9.539.042-10.006.042a3.436,3.436,0,0,0-2.821,1.476,3.753,3.753,0,0,0-.635,2.19L16.4-14.823A6.936,6.936,0,0,1,19.384-16.3c4.008-2.085,8.31-4.318,12.53-6.529m26.9-12.723.319.716-.319.168Zm1.1-5.455v19.969c0,7.711-2.205,14.009-6.741,19.3-3.9,4.55-8.9,7.6-13.315,10.3-1,.611-1.95,1.181-2.861,1.768a35.1,35.1,0,0,0-3.5,2.422l-.7.569-.721-.569a34.527,34.527,0,0,0-3.476-2.422c-.913-.588-1.866-1.158-2.863-1.768-4.41-2.7-9.413-5.749-13.313-10.3A26.667,26.667,0,0,1,7.7-9.578l1.017-.484C12.706.3,22.225,4.934,29.2,9.379a34.241,34.241,0,0,1,3.6,2.508,34.111,34.111,0,0,1,3.6-2.508C45.44,3.608,58.816-2.459,58.795-21.038l.022-11.817v-1.813l.319-.168-.319-.716-.022-4.34c-13,0-21.391-3.053-25.991-9.2-4.6,6.15-13.018,9.2-26.012,9.2v7.037l.022,11.817A30.241,30.241,0,0,0,8.508-10.61c-.339.189-.677.357-1,.506A31.041,31.041,0,0,1,5.688-21.038V-41.007h1.1c12.507,0,20.712-2.865,25.1-8.74l.913-1.2.89,1.2c4.389,5.877,12.615,8.741,25.1,8.741ZM79.426-27.188v1.874H76.095v9.184h-2.12v-9.184H70.754v-1.874ZM80.441-9.137A4.284,4.284,0,0,1,79.7-6.188a4.521,4.521,0,0,1-3.032.716l-.489.021h-2.5v3.58h-2.1V-12.95h5.027a4.5,4.5,0,0,1,3.051.78,4.328,4.328,0,0,1,.785,3.034M78.3-9.1a2.935,2.935,0,0,0-.319-1.747,2.668,2.668,0,0,0-1.674-.338H73.68v3.959h2.415a3.16,3.16,0,0,0,1.826-.334c.254-.213.38-.739.38-1.54M80.674-40.88v7.351c0,1.538-.295,2.571-.889,3.054-.6.5-1.824.759-3.647.759-1.953,0-3.222-.232-3.838-.716q-.891-.7-.89-2.971V-40.88h2.119V-33.4c0,.821.128,1.327.427,1.56a4.26,4.26,0,0,0,2.074.315,4.267,4.267,0,0,0,2.1-.315c.3-.233.424-.781.424-1.645V-40.88Zm7.356,17v7.751H86.145l.1-1.326H86.23a2.382,2.382,0,0,1-2.524,1.409,2.332,2.332,0,0,1-2.652-2.632v-5.2h1.867v4.76a2.072,2.072,0,0,0,.3,1.307c.17.211.55.314,1.145.314q1.779,0,1.781-2.148v-4.233Zm1.23,16.936V-1.87H87.393l.086-1.073h-.043c-.361.78-1.187,1.159-2.5,1.159-1.866,0-2.821-.8-2.821-2.4s.955-2.4,2.9-2.4c1.275,0,2.057.293,2.335.86h.039V-6.967a1.617,1.617,0,0,0-.317-1.2,1.956,1.956,0,0,0-1.313-.3c-.934,0-1.422.357-1.422,1.075H82.435a2.138,2.138,0,0,1,.656-1.855,4.758,4.758,0,0,1,2.587-.483,4.786,4.786,0,0,1,2.842.589,2.68,2.68,0,0,1,.739,2.192m-3.56,3.9c1.145,0,1.716-.359,1.716-1.138S86.8-5.345,85.594-5.345Q84-5.345,84-4.27a1.178,1.178,0,0,0,.338.99,2.461,2.461,0,0,0,1.358.232m4.556-32.039v5.266H88.39v-4.951l-.041-.549c-.084-.568-.529-.863-1.358-.863-1.271,0-1.887.59-1.887,1.77v4.593H83.238v-7.752h1.847L85-36.268l.039.02a2.349,2.349,0,0,1,2.459-1.41c1.845,0,2.756.864,2.756,2.571m.319,9.435H92.44V-27.19H90.575Zm0,9.522H92.44v-7.751H90.575ZM92.76-39.343h1.866V-40.88H92.76Zm0,9.522h1.866v-7.752H92.76ZM97.8-7.177v.546h-1.78a2,2,0,0,0,.041-.421c0-.821-.316-1.242-.975-1.242-.909,0-1.376.631-1.376,1.853V-1.87H91.847V-9.621h1.867l-.129,1.073.046.023a2.209,2.209,0,0,1,2.095-1.221c1.379,0,2.079.862,2.079,2.569m4.07-16.7v7.751h-1.864l.1-1.326h-.02a2.4,2.4,0,0,1-2.524,1.409,2.332,2.332,0,0,1-2.651-2.632v-5.2h1.865v4.76a2.1,2.1,0,0,0,.275,1.307,1.552,1.552,0,0,0,1.145.314c1.21,0,1.805-.715,1.805-2.148v-4.233Zm1.762-13.692-2.25,7.752h-2.9L96.13-37.573H98.1l1.037,3.581c.151.5.277.97.382,1.453l.19.715.193.716h.041l.17-.716.168-.715c.128-.547.258-1.033.382-1.453l.955-3.581ZM106.35-6.945V-1.87h-1.869l.108-1.073h-.065c-.358.78-1.187,1.159-2.478,1.159-1.888,0-2.841-.8-2.841-2.4s.975-2.4,2.9-2.4c1.29,0,2.074.293,2.351.86h.02V-6.967a1.641,1.641,0,0,0-.315-1.2,1.9,1.9,0,0,0-1.3-.3c-.953,0-1.44.357-1.44,1.075H99.545a2.191,2.191,0,0,1,.635-1.855,4.805,4.805,0,0,1,2.585-.483,4.882,4.882,0,0,1,2.861.589,2.667,2.667,0,0,1,.724,2.192m-3.543,3.9c1.124,0,1.7-.359,1.7-1.138s-.614-1.159-1.826-1.159c-1.04,0-1.569.359-1.569,1.075,0,.506.105.843.32.99a2.53,2.53,0,0,0,1.376.232m6.976-16.072v.4c0,.358,0,.655-.022.93-.107,1.177-1,1.767-2.651,1.767-1.674,0-2.5-.759-2.5-2.3V-22.47h-1.021v-1.411h1.021v-1.727h1.862v1.727h2.991v1.411h-2.991v3.9c0,.715.277,1.073.826,1.073.594,0,.891-.443.891-1.307v-.314Zm2.248-13.188v.317c0,1.516-1.126,2.254-3.415,2.254-1.545,0-2.566-.252-3.051-.778-.47-.527-.7-1.644-.7-3.327,0-1.516.23-2.529.74-3.035a4.016,4.016,0,0,1,2.925-.78,3.926,3.926,0,0,1,2.8.738,4.636,4.636,0,0,1,.7,2.991v.569h-5.28v.338a2.3,2.3,0,0,0,.359,1.536,1.915,1.915,0,0,0,1.4.378,2.489,2.489,0,0,0,1.334-.231c.215-.148.32-.463.32-.97Zm-1.846-2.19v-.315a1.524,1.524,0,0,0-.34-1.181,2.265,2.265,0,0,0-1.4-.3,2.041,2.041,0,0,0-1.358.337,2.31,2.31,0,0,0-.317,1.454Zm1.295,8.846h1.866V-27.19H111.48Zm0,9.522h1.866v-7.751H111.48Zm4.431,8.973V-1.87h-1.866V-6.84L114-7.387c-.085-.57-.531-.864-1.356-.864-1.273,0-1.888.588-1.888,1.77V-1.87h-1.866V-9.621h1.845l-.061,1.307h.02a2.366,2.366,0,0,1,2.459-1.411c1.843,0,2.756.864,2.756,2.569m4.366-27.953v.549H118.5a1.94,1.94,0,0,0,.044-.421c0-.822-.32-1.244-.955-1.244-.933,0-1.4.612-1.4,1.854v4.551h-1.864v-7.752h1.864l-.128,1.095h.044a2.262,2.262,0,0,1,2.119-1.2c1.357,0,2.057.841,2.057,2.568m3.14,22.14.655,1.244-2.9,1.261-.421-.777Zm1.865,6.026V-1.87h-1.865l.085-1.073h-.066c-.361.78-1.186,1.159-2.481,1.159-1.884,0-2.82-.8-2.82-2.4s.956-2.4,2.886-2.4c1.291,0,2.076.293,2.351.86h.044V-6.967a1.523,1.523,0,0,0-.342-1.2c-.189-.212-.633-.3-1.292-.3-.956,0-1.442.357-1.442,1.075h-1.885a2.195,2.195,0,0,1,.636-1.855,4.8,4.8,0,0,1,2.585-.483,4.887,4.887,0,0,1,2.861.589,2.673,2.673,0,0,1,.744,2.192m-3.561,3.9c1.121,0,1.7-.359,1.7-1.138s-.6-1.159-1.826-1.159c-1.06,0-1.569.359-1.569,1.075a1.183,1.183,0,0,0,.319.99,2.6,2.6,0,0,0,1.38.232m5.255-24.14V-16.13h-1.822l.062-1.244-.02-.019a2.3,2.3,0,0,1-2.394,1.367,2.887,2.887,0,0,1-2.439-.841,6.5,6.5,0,0,1-.616-3.412,4.826,4.826,0,0,1,.659-2.886,2.8,2.8,0,0,1,2.29-.8c1.271,0,2.057.4,2.373,1.2l.042-.02v-4.4Zm-2.183,9.205a4.982,4.982,0,0,0,.317-2.19,3.339,3.339,0,0,0-.358-1.877,1.781,1.781,0,0,0-1.442-.443c-.678,0-1.145.127-1.36.443a4.014,4.014,0,0,0-.293,1.9,5.163,5.163,0,0,0,.293,2.171,1.623,1.623,0,0,0,1.4.483c.741,0,1.23-.145,1.442-.483m3.688-17.462h-1.823l-.022-.127a.9.9,0,0,0-.315-.716,4.054,4.054,0,0,0-1.3-.125q-1.462,0-1.462.946c0,.423.085.676.255.758a6.929,6.929,0,0,0,1.738.19,5.477,5.477,0,0,1,2.609.527,2.048,2.048,0,0,1,.613,1.748,2.266,2.266,0,0,1-.8,1.979,5.552,5.552,0,0,1-2.882.549,5.173,5.173,0,0,1-2.735-.506,2.048,2.048,0,0,1-.744-1.834v-.209h1.95a.723.723,0,0,0-.042.274c-.085.675.444,1.033,1.589,1.033,1.167,0,1.762-.358,1.762-1.033,0-.652-.361-.989-1.1-.989a7.493,7.493,0,0,1-3.307-.464,2.1,2.1,0,0,1-.785-1.958,1.965,1.965,0,0,1,.721-1.791,5.635,5.635,0,0,1,2.779-.464,5.24,5.24,0,0,1,2.627.443,1.954,1.954,0,0,1,.678,1.77m2.417-3.9h1.889V-40.88H130.9Zm0,9.522h1.889v-7.752H130.9Zm4.9,6.57a4.587,4.587,0,0,1,.7,3.034,5.706,5.706,0,0,1-.682,3.372c-.465.527-1.419.8-2.881.8-1.612,0-2.629-.231-3.1-.738-.488-.5-.721-1.6-.721-3.285q0-2.431.7-3.158c.468-.484,1.485-.737,3.034-.737,1.482,0,2.481.23,2.945.714m-1.188,3.056a3.613,3.613,0,0,0-.315-1.9c-.215-.274-.7-.4-1.465-.4-.785,0-1.272.127-1.482.4a3.807,3.807,0,0,0-.321,1.958,4.675,4.675,0,0,0,.3,2.191c.189.3.7.443,1.5.443.785,0,1.275-.169,1.465-.463a4.847,4.847,0,0,0,.315-2.231M142.22-40.88v11.06h-1.826l.085-1.244-.042-.021a2.3,2.3,0,0,1-2.4,1.37,2.849,2.849,0,0,1-2.436-.843,6.465,6.465,0,0,1-.6-3.412,4.866,4.866,0,0,1,.636-2.885,2.806,2.806,0,0,1,2.29-.8c1.273,0,2.055.4,2.374,1.2h.044V-40.88Zm-2.185,9.227a4.969,4.969,0,0,0,.3-2.212,3.371,3.371,0,0,0-.34-1.874,1.767,1.767,0,0,0-1.441-.443c-.7,0-1.145.126-1.356.443a3.934,3.934,0,0,0-.3,1.9,5.062,5.062,0,0,0,.3,2.168c.211.337.678.486,1.4.486.74,0,1.229-.149,1.44-.464m11.555-3.223v5.056h-1.865l.085-1.055-.063-.021c-.361.781-1.19,1.159-2.481,1.159-1.889,0-2.82-.778-2.82-2.38,0-1.621.953-2.423,2.881-2.423q1.94,0,2.352.885h.046V-34.9a1.726,1.726,0,0,0-.339-1.221,1.981,1.981,0,0,0-1.295-.3c-.955,0-1.421.357-1.421,1.094h-1.908a2.107,2.107,0,0,1,.659-1.853,4.694,4.694,0,0,1,2.583-.484,5.054,5.054,0,0,1,2.841.569,2.713,2.713,0,0,1,.744,2.212m-3.562,3.9c1.144,0,1.7-.377,1.7-1.136,0-.78-.593-1.179-1.805-1.179-1.059,0-1.588.38-1.588,1.095,0,.506.105.844.319.99a2.744,2.744,0,0,0,1.377.231m13.019-9.9v11.06h-1.805l.065-1.244-.041-.021a2.272,2.272,0,0,1-2.375,1.37,2.93,2.93,0,0,1-2.459-.843,6.452,6.452,0,0,1-.6-3.412,4.895,4.895,0,0,1,.636-2.885,2.832,2.832,0,0,1,2.29-.8c1.273,0,2.079.4,2.4,1.2h.023V-40.88Zm-2.186,9.227a4.871,4.871,0,0,0,.32-2.212,3.609,3.609,0,0,0-.339-1.874,1.811,1.811,0,0,0-1.443-.443c-.7,0-1.167.126-1.357.443a3.643,3.643,0,0,0-.316,1.9,4.679,4.679,0,0,0,.316,2.168c.19.337.659.486,1.38.486.76,0,1.229-.149,1.44-.464m11.6-.655v.317c0,1.516-1.144,2.254-3.433,2.254-1.549,0-2.567-.252-3.033-.778-.485-.527-.721-1.644-.721-3.327a4.523,4.523,0,0,1,.741-3.035,4.115,4.115,0,0,1,2.949-.78,3.893,3.893,0,0,1,2.775.738,4.484,4.484,0,0,1,.721,2.991v.569h-5.276a2.331,2.331,0,0,0-.024.338,2.444,2.444,0,0,0,.361,1.536,1.939,1.939,0,0,0,1.421.378,2.615,2.615,0,0,0,1.338-.231c.211-.148.295-.463.295-.97Zm-1.865-2.19v-.315c0-.612-.105-1.01-.316-1.181a2.283,2.283,0,0,0-1.4-.3,2.071,2.071,0,0,0-1.38.337,2.48,2.48,0,0,0-.3,1.454Z" transform="translate(0 50.95)" fill="#275d38" fill-rule="evenodd"/>
</svg>
